<svg id="图层_1" data-name="图层 1" xmlns="http://www.w3.org/2000/svg" viewBox="0 0 633.12 624.92"><defs><style>.cls-1{fill:pink;}.cls-1,.cls-2{stroke:#303030;stroke-miterlimit:10;fill-rule:evenodd;}.cls-2{fill:#edeeef;}</style></defs><path class="cls-1" d="M43.76,190s-14.25,15.07,0,32S29,247.59,29,247.59c-49.5,29.3,36.85,122.74,77.58,138.83a156.63,156.63,0,0,0,24.86,7.48,163.28,163.28,0,0,0-31,31.93c-25.77,35.41-48.62,160.57,8.87,158.79,0,0,29.15-8.29,26.19,13.65s17.15,27,17.15,27c59.63,15.82,115.63-10.35,150.21-55.85H229.62V422H278L391,149.26h87.33C477.75,105.55,459,63.37,419.51,36c0,0-16.92-12-31.69,4.51s-27.39-11.06-27.39-11.06c-36-44.88-116.33,53.75-126.53,96.34a163.45,163.45,0,0,0-4.16,45c-59.05-35.66-136.22-34.62-186,19.2ZM338.58,569.45H563.4a138,138,0,0,1-9.57,18.95s-10.51,17.88-30.75,8.9-20.44,21.31-20.44,21.31c-14.38,55.7-128.14-1.29-154.92-35.94A156.61,156.61,0,0,1,338.58,569.45Z" transform="translate(-13.57 -17.54)"/><path class="cls-2" d="M645.93,545.13H437.78L402.24,463.9H518.92l-63.37-143L356.29,545.13H265.16V463.9h36L422.55,189.75h66L645.93,545.13Z" transform="translate(-13.57 -17.54)"/></svg>